<?xml version="1.0" encoding="utf-8"?>
<!-- Generator: Adobe Illustrator 21.0.0, SVG Export Plug-In . SVG Version: 6.00 Build 0)  -->
<svg version="1.1" id="_x37_80c6f38-12e9-4526-8343-95ef18389740"
	 xmlns="http://www.w3.org/2000/svg" xmlns:xlink="http://www.w3.org/1999/xlink" x="0px" y="0px" viewBox="0 0 971.4 662"
	 style="enable-background:new 0 0 971.4 662;" xml:space="preserve">
<style type="text/css">
	.st0{opacity:0.7;}
	.st1{fill:url(#SVGID_1_);}
	.st2{fill:#4DB6AC;}
	.st3{opacity:0.6;fill:none;stroke:#535461;stroke-miterlimit:10;enable-background:new    ;}
	.st4{fill:#88BBD6;}
	.st5{fill:url(#SVGID_2_);}
	.st6{opacity:0.1;enable-background:new    ;}
	.st7{fill:#E0E0E0;}
	.st8{fill:#A1616A;}
	.st9{fill:url(#SVGID_3_);}
	.st10{fill:#535461;}
	.st11{fill:#FFFFFF;}
	.st12{fill:#EEEEEE;}
	.st13{fill:#264DE4;}
	.st14{fill:#2965F1;}
	.st15{fill:#EBEBEB;}
	.st16{fill:#E44D26;}
	.st17{fill:#F16529;}
	.st18{fill:#F7DF1E;}
	.st19{clip-path:url(#SVGID_5_);}
	.st20{fill:url(#path3462_1_);}
	.st21{clip-path:url(#SVGID_7_);}
	.st22{fill:#777BB3;}
	.st23{clip-path:url(#SVGID_9_);}
</style>
<title>designer</title>
<g class="st0">
	
		<linearGradient id="SVGID_1_" gradientUnits="userSpaceOnUse" x1="178.2616" y1="30.035" x2="299.6982" y2="30.035" gradientTransform="matrix(1 0 0 -1 -114.28 545)">
		<stop  offset="0" style="stop-color:#808080;stop-opacity:0.25"/>
		<stop  offset="0.54" style="stop-color:#808080;stop-opacity:0.12"/>
		<stop  offset="1" style="stop-color:#808080;stop-opacity:0.1"/>
	</linearGradient>
	<path class="st1" d="M184.7,485.1c2.4-9.5-1.4-19.4-9.4-25c-2.1-1.4-4.4-2.5-6.3-4c-3.2-2.7-5-6.6-6.3-10.5
		c-3.1-9.4-4.1-20-9.6-28.5c-5-7.8-14.8-10-23.4-10.8c-3.1-0.3-6.5-0.4-9.3,0.9c-4.8,2.2-7.1,7.9-7.3,13.2s1.2,10.5,1.5,15.8
		s-0.6,11.1-4.5,14.7s-9.5,4-14.6,4.7c-6.8,0.9-13.4,2.6-19.8,4.9c-5.4,2-11.4,5.5-11.6,11.2c-0.2,4.7,3.6,8.4,6.4,12.2
		c5.3,7,8,16.2,6.2,24.7s-8,16.2-9.1,25c-0.4,2.2-0.1,4.6,0.9,6.6c0.9,1.4,2,2.6,3.3,3.6c3.3,2.6,7,4.6,10.2,7.4
		c6.6,5.8,10.1,14.3,12.9,22.6c0.3,0.8,0.5,1.6,0.8,2.4h-6.5c-13.1,0.1-23.8,10.7-23.9,23.8l0,0c0.1,13.2,10.7,23.8,23.9,23.9h64.5
		c13.2-0.1,23.8-10.7,23.9-23.9l0,0c-0.1-13.2-10.7-23.8-23.9-23.9h-17.7c4.2-5.6,8.6-10.9,15-13s14.3-0.9,19.3-5.4
		c2.4-2.3,3.9-5.4,4.4-8.7c1.1-5.9,0.1-12-2.8-17.2c-2-3.6-5-6.9-5.6-11c-0.5-3.5,0.7-7.1,2.4-10.2
		C173.5,501.8,182.1,494.9,184.7,485.1z"/>
</g>
<path class="st2" d="M129.6,411.4c-3-0.3-6.1-0.4-8.9,0.8c-4.6,2.1-6.8,7.5-7,12.5s1.1,10,1.4,15s-0.6,10.6-4.3,14s-9,3.8-13.9,4.5
	c-6.4,0.9-12.8,2.5-18.9,4.7c-5.1,1.9-10.9,5.2-11.1,10.7c-0.2,4.5,3.4,8,6.1,11.6c5.1,6.6,7.6,15.4,5.9,23.5s-7.6,15.4-8.6,23.9
	c-0.4,2.1-0.1,4.3,0.9,6.3c0.8,1.3,1.9,2.5,3.2,3.4c3.2,2.5,6.7,4.4,9.7,7.1c6.3,5.5,9.6,13.6,12.3,21.5c2.6,7.8,4.6,15.8,6,23.9
	c5.4-3.5,12.4-3.4,18.1-6.2c12.2-6,16.4-23.4,29.3-27.7c6.1-2,13.6-0.8,18.4-5.1c2.3-2.2,3.7-5.1,4.2-8.3c1-5.6,0.1-11.4-2.7-16.4
	c-1.9-3.5-4.8-6.6-5.4-10.5c-0.5-3.3,0.7-6.7,2.3-9.7c4.6-8.5,12.9-15,15.4-24.3c2.2-9-1.3-18.5-8.9-23.8c-2.1-1.2-4.1-2.5-6-3.9
	c-3-2.5-4.7-6.3-6-10c-3-9-3.9-19-9.2-27.2C147.1,414.3,137.8,412.2,129.6,411.4z"/>
<path class="st3" d="M129.5,411.7c0,0,11.4,152.4-18.2,178.6"/>
<path class="st4" d="M83.2,573.2h76.5c8.4,0,15.2,6.8,15.2,15.2v15.1c0,8.4-6.8,15.2-15.2,15.2H83.2c-8.4,0-15.2-6.8-15.2-15.2
	v-15.1C68.1,580,74.9,573.2,83.2,573.2z"/>
<path class="st3" d="M66.9,470.9c0,0,29.1-3.4,64.6,18.2"/>
<path class="st3" d="M130.9,507.3c0,0,16.2-26.7,50.9-31.8"/>
<path class="st3" d="M69.7,532.9c0,0,40.3-6.8,58.8,4.5"/>
<path class="st3" d="M126.3,553c0,0,21.1-9.6,44.8-1.8"/>
<g class="st0">
	
		<linearGradient id="SVGID_2_" gradientUnits="userSpaceOnUse" x1="979.4298" y1="-74.6" x2="979.4298" y2="17.22" gradientTransform="matrix(1 0 0 -1 -114.28 545)">
		<stop  offset="0" style="stop-color:#808080;stop-opacity:0.25"/>
		<stop  offset="0.54" style="stop-color:#808080;stop-opacity:0.12"/>
		<stop  offset="1" style="stop-color:#808080;stop-opacity:0.1"/>
	</linearGradient>
	<path class="st5" d="M895.5,544.2v-16.4h-82v75.8c0,8.8,7.2,16,16,16h50c8.8,0,16-7.2,16-16v-16.8c11.8,0,21.3-9.5,21.3-21.3
		C916.8,553.7,907.3,544.2,895.5,544.2C895.5,544.2,895.5,544.2,895.5,544.2z M895.5,578.6v-26.2c7.2-0.2,13.3,5.5,13.5,12.8
		c0.2,7.2-5.5,13.3-12.8,13.5C896,578.6,895.7,578.6,895.5,578.6z"/>
</g>
<path class="st4" d="M892.9,546.7c-10.7,0-19.5,8.7-19.5,19.5c0,10.7,8.7,19.5,19.5,19.5c10.7,0,19.5-8.7,19.5-19.5l0,0
	C912.3,555.5,903.6,546.7,892.9,546.7z M892.9,578.2c-6.6,0-12-5.4-12-12s5.4-12,12-12s12,5.4,12,12
	C904.9,572.8,899.5,578.2,892.9,578.2C892.9,578.2,892.9,578.2,892.9,578.2L892.9,578.2z"/>
<path class="st6" d="M892.9,546.7c-10.7,0-19.5,8.7-19.5,19.5c0,10.7,8.7,19.5,19.5,19.5c10.7,0,19.5-8.7,19.5-19.5l0,0
	C912.3,555.5,903.6,546.7,892.9,546.7z M892.9,578.2c-6.6,0-12-5.4-12-12s5.4-12,12-12s12,5.4,12,12
	C904.9,572.8,899.5,578.2,892.9,578.2C892.9,578.2,892.9,578.2,892.9,578.2L892.9,578.2z"/>
<path class="st4" d="M818,531.8h74.8l0,0v74.1c0,5.4-4.4,9.8-9.8,9.8l0,0h-55.3c-5.4,0-9.8-4.4-9.8-9.8l0,0L818,531.8L818,531.8z"/>
<rect y="615.6" class="st7" width="971.4" height="32.9"/>
<path class="st4" d="M489.3,521.7c48.9,0,128.8-14.6,166.8-39.6c-4.1-22.5-13.6-58.9-22.6-91.4c-11.4-41.5-83.5-70.2-126.5-70.2
	h-41.5c-43.2,0-115.4,28.9-126.6,70.6c-8.6,31.7-17.8,66.6-22.3,87.1C355.7,505.6,437.9,521.7,489.3,521.7z"/>
<circle cx="486.8" cy="164.5" r="116.2"/>
<path class="st6" d="M449.3,261.3h74.5l0,0v59.6c0,20.6-16.7,37.2-37.2,37.2l0,0c-20.6,0-37.2-16.7-37.2-37.2L449.3,261.3
	L449.3,261.3z"/>
<path class="st8" d="M460,258.5h53.1c5.9,0,10.7,4.8,10.7,10.7v48.9c0,20.6-16.7,37.2-37.2,37.2l0,0c-20.6,0-37.2-16.7-37.2-37.2
	v-48.9C449.3,263.3,454.1,258.5,460,258.5C460,258.5,460,258.5,460,258.5z"/>
<path class="st6" d="M449.4,289.4c24,9,50.4,9,74.5,0.2v-9.1h-74.5V289.4z"/>
<circle class="st8" cx="486.8" cy="187.7" r="106.8"/>
<path class="st6" d="M410.7,90.6c0,0,45,91.3,171.9,38.3l-29.5-46.3l-52.4-18.8L410.7,90.6z"/>
<path d="M410.7,89.2c0,0,45,91.3,171.9,38.3l-29.5-46.3l-52.4-18.8L410.7,89.2z"/>
<path d="M593.6,188.6h-2.8l-55.1,49c-53-24.9-92,0-92,0l-57.8-47l-5.8,0.7c1.6,58.9,50.7,105.4,109.6,103.8
	C547.5,293.5,593.5,246.3,593.6,188.6L593.6,188.6z M486.6,256.4c-20.8,0-37.6-4.2-37.6-9.4s16.8-9.4,37.6-9.4s37.6,4.2,37.6,9.4
	S507.4,256.4,486.6,256.4z"/>
<ellipse class="st8" cx="380" cy="187.6" rx="9.9" ry="18.6"/>
<ellipse class="st8" cx="593.5" cy="187.6" rx="9.9" ry="18.6"/>
<g class="st0">
	
		<linearGradient id="SVGID_3_" gradientUnits="userSpaceOnUse" x1="485.72" y1="48.41" x2="485.72" y2="286.3" gradientTransform="matrix(1 0 0 -1 0 664)">
		<stop  offset="0" style="stop-color:#808080;stop-opacity:0.25"/>
		<stop  offset="0.54" style="stop-color:#808080;stop-opacity:0.12"/>
		<stop  offset="1" style="stop-color:#808080;stop-opacity:0.1"/>
	</linearGradient>
	<path class="st9" d="M293.7,377.7h384.1c8,0,14.5,6.5,14.5,14.5v208.9c0,8-6.5,14.5-14.5,14.5H293.7c-8,0-14.5-6.5-14.5-14.5V392.2
		C279.2,384.2,285.7,377.7,293.7,377.7z"/>
</g>
<path class="st10" d="M313.5,382.1H658c14.8,0,26.8,12,26.8,26.8v179.8c0,14.8-12,26.8-26.8,26.8H313.5c-14.8,0-26.8-12-26.8-26.8
	V408.9C286.6,394.1,298.7,382.1,313.5,382.1z"/>
<circle class="st11" cx="485.7" cy="498.9" r="13.5"/>
<rect x="41.2" y="648.5" class="st7" width="889.1" height="13.5"/>
<rect x="41.2" y="648.5" class="st6" width="889.1" height="4.5"/>
<path class="st6" d="M879.4,531.8V601c0,8.1-6.5,14.6-14.6,14.6h0h7.5c8.1,0,14.6-6.5,14.6-14.6c0,0,0,0,0,0v-69.2H879.4z"/>
<path class="st12" d="M832.8,476c-1.3,0.2-2.7,0.6-3.3,1.7c-1,1.8,0.8,3.8,2.4,5c3,2.3,6.2,4.5,8.2,7.6s2.7,7.5,0.5,10.6
	c-2.9,4-9.8,4.8-10.5,9.7c-0.4,3.1,2.3,5.8,5,7.3c6.7,3.9,15.4,4.9,20.3,10.9c2-4.2,6.5-6.5,11-7.6c4.5-1,9.2-1,13.8-1.6
	c1.5-0.2,3.1-0.7,3.8-2c1.3-2.6-2.4-5.7-1.1-8.3c1-2,3.8-1.8,5.8-2.6c3.3-1.3,4.7-5.6,3.8-9c-0.9-3.4-3.6-6.2-6.4-8.4
	c-7.6-6-16.7-9.5-25.9-12c-4.3-1.2-9.3-3-13.8-3.2C841.9,473.9,837,475.2,832.8,476z"/>
<path class="st13" d="M282.4,374.4l-61.3-17l-13.7-153.3h150.2l-13.7,153.3L282.4,374.4z"/>
<path class="st14" d="M332.2,347.6l11.7-131h-61.4v144.7L332.2,347.6z"/>
<path class="st15" d="M238.7,273.4l1.7,18.8h42.1v-18.8H238.7z M235.4,235.4l1.7,18.8h45.4v-18.8L235.4,235.4L235.4,235.4z
	 M282.5,322.3L282.5,322.3l-21-5.7l-1.3-15h-18.9l2.6,29.5l38.5,10.7h0.1L282.5,322.3z"/>
<path class="st11" d="M326.1,273.4l3.4-38.1h-47.1v18.8h26.5l-1.7,19.2h-24.8v18.8h23.2l-2.2,24.4l-20.9,5.7v19.6l38.5-10.7l0.3-3.2
	l4.4-49.5L326.1,273.4L326.1,273.4z"/>
<path class="st16" d="M216.6,43.3L201.3,214l-68.5,19l-68.3-19L49.3,43.3H216.6z"/>
<path class="st17" d="M132.9,218.5l55.3-15.3l13-145.9h-68.3V218.5z"/>
<path class="st15" d="M103.3,99.1h29.6V78.2H80.4l0.5,5.6l5.2,57.7h46.9v-20.9h-27.7L103.3,99.1z M108.1,152h-21l2.9,32.9l42.8,11.9
	h0.1v-21.9h-0.1l-23.3-6.3L108.1,152z"/>
<path class="st11" d="M132.9,141.5h25.8l-2.4,27.2l-23.3,6.3v21.8l42.9-11.9l0.3-3.5l4.9-55.1l0.5-5.6h-48.7V141.5L132.9,141.5z
	 M132.9,99.1L132.9,99.1l50.6,0l0.4-4.7l1-10.6l0.5-5.6h-52.5V99.1L132.9,99.1z"/>
<path class="st18" d="M612.5,186.5h170.2v170.2H612.5V186.5z"/>
<path d="M657.2,328.7l13-7.9c2.5,4.5,4.8,8.2,10.3,8.2c5.3,0,8.6-2.1,8.6-10v-54.4h16v54.6c0,16.6-9.7,24.1-23.9,24.1
	C668.4,343.3,661,336.7,657.2,328.7 M713.8,327l13-7.5c3.4,5.6,7.9,9.7,15.8,9.7c6.6,0,10.8-3.3,10.8-7.9c0-5.5-4.3-7.4-11.6-10.6
	l-4-1.7c-11.5-4.9-19.2-11.1-19.2-24.1c0-12,9.1-21.1,23.4-21.1c10.2,0,17.5,3.5,22.7,12.8l-12.4,8c-2.7-4.9-5.7-6.9-10.3-6.9
	c-4.7,0-7.7,3-7.7,6.9c0,4.8,3,6.7,9.8,9.7l4,1.7c13.6,5.8,21.2,11.8,21.2,25.1c0,14.4-11.3,22.3-26.5,22.3
	C728,343.3,718.4,336.2,713.8,327"/>
<title  id="title3510">Official PHP Logo</title>
<g id="g3438" transform="matrix(1.25,0,0,-1.25,-4.4,394.29875)">
	<g id="g3440">
		<g>
			<defs>
				<path id="SVGID_4_" d="M560.4,225.6c0-29.7,45.8-53.9,102.4-53.9l0,0c56.6,0,102.4,24.1,102.4,53.9l0,0
					c0,29.7-45.8,53.9-102.4,53.9l0,0C606.3,279.5,560.4,255.4,560.4,225.6"/>
			</defs>
			<clipPath id="SVGID_5_">
				<use xlink:href="#SVGID_4_"  style="overflow:visible;"/>
			</clipPath>
			<g id="g3442" class="st19">
				<g id="g3448">
					<g id="g3450">
						
							<radialGradient id="path3462_1_" cx="149.5938" cy="-266.9871" r="0.8824" gradientTransform="matrix(190.4933 0 0 -190.4933 -27874.707 -50598.7227)" gradientUnits="userSpaceOnUse">
							<stop  offset="0" style="stop-color:#AEB2D5"/>
							<stop  offset="0.3" style="stop-color:#AEB2D5"/>
							<stop  offset="0.75" style="stop-color:#484C89"/>
							<stop  offset="1" style="stop-color:#484C89"/>
						</radialGradient>
						<path id="path3462" class="st20" d="M560.4,225.6c0-29.7,45.8-53.9,102.4-53.9l0,0c56.6,0,102.4,24.1,102.4,53.9l0,0
							c0,29.7-45.8,53.9-102.4,53.9l0,0C606.3,279.5,560.4,255.4,560.4,225.6"/>
					</g>
				</g>
			</g>
		</g>
	</g>
	<g id="g3464">
		<g>
			<defs>
				<rect id="SVGID_6_" x="529.5" y="150.6" width="266.7" height="150"/>
			</defs>
			<clipPath id="SVGID_7_">
				<use xlink:href="#SVGID_6_"  style="overflow:visible;"/>
			</clipPath>
			<g id="g3466" class="st21">
				<g id="g3472" transform="translate(288,27.3594)">
					<path id="path3474" class="st22" d="M374.8,148.4c54.3,0,98.4,22.3,98.4,49.9c0,27.5-44.1,49.9-98.4,49.9s-98.4-22.3-98.4-49.9
						C276.4,170.7,320.5,148.4,374.8,148.4"/>
				</g>
			</g>
		</g>
	</g>
	<g id="g3476">
		<g>
			<defs>
				<rect id="SVGID_8_" x="529.5" y="150.6" width="266.7" height="150"/>
			</defs>
			<clipPath id="SVGID_9_">
				<use xlink:href="#SVGID_8_"  style="overflow:visible;"/>
			</clipPath>
			<g id="g3478" class="st23">
				<g id="g3484" transform="translate(161.7344,145.3066)">
					<path id="path3486" d="M454.3,74.1c4.5,0,7.8,0.8,9.9,2.4c2.1,1.6,3.5,4.4,4.3,8.3c0.7,3.6,0.4,6.2-0.8,7.5
						c-1.3,1.4-4,2.1-8.1,2.1h-7.1l-4-20.4H454.3z M431,49c-0.3,0-0.6,0.1-0.9,0.4c-0.2,0.3-0.3,0.6-0.2,0.9l10.5,54
						c0.1,0.5,0.6,0.9,1.1,0.9h22.6c7.1,0,12.4-1.9,15.7-5.7c3.3-3.8,4.4-9.2,3.1-15.9c-0.5-2.7-1.4-5.3-2.7-7.6
						c-1.3-2.3-3-4.4-5-6.3c-2.5-2.3-5.2-4-8.2-4.9c-3-1-6.8-1.5-11.3-1.5h-9.2l-2.6-13.5c-0.1-0.5-0.6-0.9-1.1-0.9H431z"/>
				</g>
				<g id="g3488" transform="translate(159.2236,197.3071)">
					<path id="path3490" class="st11" d="M455.9,41.4h6.2c5,0,6.7-1.1,7.3-1.7c1-1.1,1.2-3.4,0.5-6.6c-0.7-3.6-2-6.2-3.9-7.6
						c-1.9-1.5-5-2.2-9.2-2.2h-4.5L455.9,41.4z M466.6,54.3H444c-1.1,0-2-0.8-2.2-1.8l-10.5-54c-0.1-0.7,0-1.3,0.5-1.8
						c0.4-0.5,1.1-0.8,1.7-0.8h11.8c1.1,0,2,0.8,2.2,1.8l2.4,12.6h8.2c4.7,0,8.6,0.5,11.7,1.5c3.2,1,6.1,2.8,8.6,5.2
						c2.1,2,3.9,4.2,5.2,6.5c1.3,2.4,2.3,5,2.8,7.9c1.4,7.1,0.3,12.7-3.3,16.8C479.6,52.3,474,54.3,466.6,54.3 M449.7,21h7.2
						c4.7,0,8.3,0.9,10.6,2.7c2.3,1.8,3.9,4.8,4.7,8.9c0.8,4,0.4,6.8-1.1,8.5c-1.5,1.6-4.5,2.5-8.9,2.5h-8.1L449.7,21 M466.6,52.1
						c6.8,0,11.8-1.8,14.9-5.4c3.1-3.6,4.1-8.6,2.8-15c-0.5-2.6-1.4-5-2.6-7.2c-1.2-2.2-2.8-4.2-4.8-6c-2.3-2.2-5-3.8-7.8-4.7
						c-2.9-0.9-6.5-1.4-11-1.4H448l-2.8-14.4h-11.8l10.5,54H466.6"/>
				</g>
				<g id="g3492" transform="translate(311.583,116.3066)">
					<path id="path3494" d="M360,92.4c-0.3,0-0.6,0.1-0.9,0.4c-0.2,0.3-0.3,0.6-0.2,0.9l4.6,23.9c0.4,2.3,0.3,3.9-0.3,4.6
						c-0.4,0.4-1.6,1.1-5,1.1h-8.4l-5.8-30c-0.1-0.5-0.6-0.9-1.1-0.9h-11.7c-0.3,0-0.6,0.1-0.9,0.4c-0.2,0.3-0.3,0.6-0.2,0.9
						l10.5,54c0.1,0.5,0.6,0.9,1.1,0.9h11.7c0.3,0,0.6-0.1,0.9-0.4c0.2-0.3,0.3-0.6,0.2-0.9l-2.5-13h9c6.9,0,11.6-1.2,14.3-3.7
						c2.8-2.5,3.6-6.6,2.6-12.1l-4.9-25.1c-0.1-0.5-0.6-0.9-1.1-0.9H360z"/>
				</g>
				<g id="g3496" transform="translate(293.6611,271.0571)">
					<path id="path3498" class="st11" d="M371.3-5.1h-11.7c-1.1,0-2-0.8-2.2-1.8l-10.5-54c-0.1-0.7,0-1.3,0.5-1.8
						c0.4-0.5,1.1-0.8,1.7-0.8h11.7c1.1,0,2,0.8,2.2,1.8l5.7,29.1h7.5c3.5,0,4.2-0.7,4.2-0.8c0.2-0.2,0.5-1.3,0-3.6l-4.6-23.9
						c-0.1-0.7,0-1.3,0.5-1.8c0.4-0.5,1.1-0.8,1.7-0.8h11.9c1.1,0,2,0.8,2.2,1.8l4.9,25.1c1.1,5.9,0.2,10.3-2.9,13.1
						c-2.9,2.7-7.9,4-15,4h-7.7l2.3,11.7c0.1,0.7,0,1.3-0.5,1.8C372.6-5.4,371.9-5.1,371.3-5.1 M371.3-7.3l-2.8-14.4h10.4
						c6.5,0,11.1-1.1,13.5-3.4c2.5-2.3,3.2-6,2.2-11.1l-4.9-25.1h-11.9l4.6,23.9c0.5,2.7,0.3,4.6-0.6,5.6c-0.9,1-2.9,1.5-5.9,1.5
						h-9.3l-6-30.9h-11.7l10.5,54H371.3"/>
				</g>
				<g id="g3500" transform="translate(409.5498,145.3066)">
					<path id="path3502" d="M298.3,74.1c4.5,0,7.8,0.8,9.9,2.4c2.1,1.6,3.5,4.4,4.3,8.3c0.7,3.6,0.4,6.2-0.8,7.5
						c-1.3,1.4-4,2.1-8.1,2.1h-7.1l-4-20.4H298.3z M274.9,49c-0.3,0-0.6,0.1-0.9,0.4c-0.2,0.3-0.3,0.6-0.2,0.9l10.5,54
						c0.1,0.5,0.6,0.9,1.1,0.9H308c7.1,0,12.4-1.9,15.7-5.7c3.3-3.8,4.4-9.2,3.1-15.9c-0.5-2.7-1.4-5.3-2.7-7.6
						c-1.3-2.3-3-4.4-5-6.3c-2.5-2.3-5.2-4-8.2-4.9c-3-1-6.8-1.5-11.3-1.5h-9.2l-2.6-13.5c-0.1-0.5-0.6-0.9-1.1-0.9H274.9z"/>
				</g>
				<g id="g3504" transform="translate(407.0391,197.3071)">
					<path id="path3506" class="st11" d="M299.9,41.4h6.2c5,0,6.7-1.1,7.3-1.7c1-1.1,1.2-3.4,0.5-6.6c-0.7-3.6-2-6.2-3.9-7.6
						c-1.9-1.5-5-2.2-9.2-2.2h-4.5L299.9,41.4z M310.6,54.3h-22.6c-1.1,0-2-0.8-2.2-1.8l-10.5-54c-0.1-0.7,0-1.3,0.5-1.8
						c0.4-0.5,1.1-0.8,1.7-0.8h11.8c1.1,0,2,0.8,2.2,1.8l2.4,12.6h8.2c4.7,0,8.6,0.5,11.7,1.5c3.2,1,6.1,2.8,8.7,5.2
						c2.1,2,3.9,4.2,5.2,6.5c1.3,2.4,2.3,5,2.8,7.9c1.4,7.1,0.3,12.7-3.3,16.8C323.6,52.3,318,54.3,310.6,54.3 M293.7,21h7.2
						c4.7,0,8.3,0.9,10.6,2.7c2.3,1.8,3.9,4.8,4.7,8.9c0.8,4,0.4,6.8-1.1,8.5c-1.5,1.6-4.5,2.5-8.9,2.5H298L293.7,21 M310.6,52.1
						c6.8,0,11.8-1.8,14.9-5.4c3.1-3.6,4.1-8.6,2.8-15c-0.5-2.6-1.4-5-2.6-7.2c-1.2-2.2-2.8-4.2-4.8-6c-2.3-2.2-5-3.8-7.8-4.7
						c-2.9-0.9-6.5-1.4-11-1.4H292l-2.8-14.4h-11.8l10.5,54H310.6"/>
				</g>
			</g>
		</g>
	</g>
</g>
</svg>
