<?xml version="1.0" encoding="utf-8"?>
<!-- Generator: Adobe Illustrator 21.0.0, SVG Export Plug-In . SVG Version: 6.00 Build 0)  -->
<svg version="1.1" id="ce0caf1d-b686-4c5f-8a14-7ab48d3ff308"
	 xmlns="http://www.w3.org/2000/svg" xmlns:xlink="http://www.w3.org/1999/xlink" x="0px" y="0px" viewBox="0 0 1038.7 566.5"
	 style="enable-background:new 0 0 1038.7 566.5;" xml:space="preserve">
<style type="text/css">
	.st0{opacity:0.1;fill:#88BBD6;enable-background:new    ;}
	.st1{fill:#DC9BA3;}
	.st2{opacity:5.000000e-02;enable-background:new    ;}
	.st3{fill:#88BBD6;}
	.st4{opacity:0.1;enable-background:new    ;}
	.st5{fill:#A1616A;}
	.st6{fill:#E9E9EF;}
	.st7{fill:#CEDAD5;}
	.st8{fill:#FFD037;}
	.st9{fill:#A8A8A8;}
	.st10{opacity:0.2;enable-background:new    ;}
	.st11{fill:#4A4347;}
	.st12{opacity:5.000000e-02;}
	.st13{opacity:0.2;fill:#FFFFFF;enable-background:new    ;}
	.st14{opacity:5.000000e-02;fill:#00FF00;enable-background:new    ;}
	.st15{fill:#7679B4;}
	.st16{fill:#565388;}
	.st17{opacity:0.2;fill:#88BBD6;enable-background:new    ;}
	.st18{opacity:0.2;}
	.st19{opacity:0.1;fill:#252223;enable-background:new    ;}
	.st20{opacity:0.3;fill:#88BBD6;enable-background:new    ;}
	.st21{fill:url(#SVGID_1_);}
	.st22{fill:#535461;}
	.st23{fill:url(#SVGID_2_);}
	.st24{fill:#F9D5C6;}
	.st25{fill:#353535;}
	.st26{fill:#409CD6;}
	.st27{fill:#2F302F;}
	.st28{fill:none;stroke:#535461;stroke-miterlimit:10;}
	.st29{fill:none;stroke:#535461;stroke-width:2;stroke-miterlimit:10;}
	.st30{opacity:0.25;enable-background:new    ;}
</style>
<title>virtual_reality</title>
<path class="st0" d="M302.5,276.7c-24.5,11.3-47.1,26.9-72.6,35.6c-31.1,10.6-64.6,10.5-97.4,10.2L0,321.6
	c26.8,48.2,74.2,84.5,127.8,97.8c21,5.2,43.4,7.3,61.9,18.5c23.1,14,36.8,40.3,60.2,53.7c25.9,14.7,58,10.7,86.8,18
	c37.6,9.4,69,37.8,107.3,43.4c37.1,5.4,73.2-11.3,109.1-21.9c128.3-37.8,266.9,2.6,399.3-16.1c5.1-0.7,10.5-1.7,14.2-5.3
	c4.7-4.6,5.1-12,4.2-18.6c-4.7-32.7-34.2-56.8-65-68.7c-65.8-25.3-139.7-9.4-209.6-18.5c-48-6.3-93.7-24.3-138.7-42.2
	c-47.2-18.7-95.1-37.1-139.8-61.3C372.4,275.8,357.6,251.3,302.5,276.7z"/>
<path class="st1" d="M717.2,450.5c0,0,2,30-2,35c0,0,88,16,99,11s6-13,0-16s-36-14-40-35c0,0,13-6-29,2S717.2,450.5,717.2,450.5z"/>
<path class="st2" d="M717.2,450.5c0,0,2,30-2,35c0,0,88,16,99,11s6-13,0-16s-36-14-40-35c0,0,13-6-29,2S717.2,450.5,717.2,450.5z"/>
<path class="st3" d="M374,32.7l-0.4,0.2c-18.2,8.6-33.9,21.4-46,37.5c-6.8,9-15.2,17.6-23.2,19c-17.7,3.1-147.8,138.5-116.6,264.5
	S401.4,485,401.4,485s38.8,6.6,61,19.7c10.5,6.2,23.2,7.4,34.8,3.3c26.5-9.4,70-23.1,89.6-18.9c29.2,6.2,279-97.9,279-97.9
	s-104.1-100-257.2-97.9c0,0-241.5-168.7-233.2-238.4L374,32.7z"/>
<path class="st4" d="M374,32.7l-0.4,0.2c-18.2,8.6-33.9,21.4-46,37.5c-6.8,9-15.2,17.6-23.2,19c-17.7,3.1-147.8,138.5-116.6,264.5
	S401.4,485,401.4,485s38.8,6.6,61,19.7c10.5,6.2,23.2,7.4,34.8,3.3c26.5-9.4,70-23.1,89.6-18.9c29.2,6.2,279-97.9,279-97.9
	s-104.1-100-257.2-97.9c0,0-241.5-168.7-233.2-238.4L374,32.7z"/>
<path class="st3" d="M374.2,32.5l-25,24c0,0-19,37-36,40s-142,133-112,254s205,126,205,126s36.4,6.2,57.8,18.5
	c10.5,6.2,23.2,7.4,34.7,3.4c25.5-9,66.8-21.9,85.4-17.9c28,6,268-94,268-94s-100-96-247-94c0,0-232-162-224-229L374.2,32.5z"/>
<ellipse transform="matrix(0.7071 -0.7071 0.7071 0.7071 -93.7262 403.3233)" class="st4" cx="440" cy="314.8" rx="78.9" ry="143.6"/>
<path class="st5" d="M374.2,159.5c0,0,11,18,4,53s18,35,18,35h50l17-44l-24,2c0,0-16-4-9-41L374.2,159.5z"/>
<path class="st5" d="M524.2,117.5c-7.7,24.4-17.2,54-22.4,69.8l-3.6,11.2l-33-34c0,0,1.5-3.4,3.6-8.1c4.8-10.5,13.2-27.5,17.4-28.9
	c0,0-46-3-60,8s-10-30-10-30s27-2,37-8s64-12,64-12S535.2,82.5,524.2,117.5z"/>
<path class="st4" d="M343.2,419.5c0,0,85-39,115-33"/>
<path class="st4" d="M256.2,327.5c0,0,103-4,159,32"/>
<path class="st4" d="M307.2,368.5c0,0,81-20,124-13"/>
<path class="st5" d="M824.2,411.5l-7,51l-18-2c0,0-1.1-1-2.9-2.7c-4.8-4.3-14.9-12.6-24.6-17.2c-3.3-1.7-6.8-2.7-10.5-3.1l20-30
	c4.9,1.8,9.9,3.3,14.9,4.4c5.3,1.2,10.7,1.9,16.1,1.9C816.3,413.9,820.4,413.1,824.2,411.5z"/>
<path class="st6" d="M774.2,447.5c-9,8-50-9-57,17l-6.4-24.7L690.9,364l-2.7-10.5l-16.5-0.7l-189.6-8.1l-10.8-0.4l-5.7-0.2l7.5-3.7
	l50-24.8c0,0,18-1.3,42.8-4.7l0,0c37.7-5.2,91-15.2,121.1-33.3c50-30,69,71,69,71s7.6,25.6,13.4,50.9c2.8,12,5.1,24,6,33.1
	C776.4,440.2,776.2,445.8,774.2,447.5z"/>
<path class="st2" d="M774.2,447.5c-9,8-50-9-57,17l-6.4-24.7L690.9,364l-2.7-10.5l-17-1L488,341.2l-11.3-0.7l-3.5-0.2l-4.5-0.3
	l54.5-24.5c0,0,18-1.3,42.8-4.7l0,0c37.7-5.2,91-15.2,121.1-33.3c50-30,69,71,69,71s7.6,25.6,13.4,50.9c2.8,12,5.1,24,6,33.1
	C776.4,440.2,776.2,445.8,774.2,447.5z"/>
<path class="st4" d="M796.1,411.9l-17.5,20.5l-7,8.2c-3.3-1.7-6.8-2.7-10.5-3.1l20-30C786.1,409.3,791.1,410.8,796.1,411.9z"/>
<path class="st6" d="M795.2,409.5l-19.6,22.9l-9.4,11.1v3c-11.5,2.7-47.5-4.9-55.4-6.7c-1-0.2-1.6-0.3-1.6-0.3c-23,1-108-49-108-49
	s-93,16-138,12c-25.1-2.2-32.2-11.3-33.5-18.9c-0.6-3.8-0.1-7.6,1.5-11.1l40.1-28.2l5.3-3.8l8.5-6c0,0,14.8-3.4,33.6-7.5l0,0
	c29.3-6.5,68.5-14.9,76.4-15.5c13-1,46,10,65,32c3.3,3.5,7,6.5,11,9l0.5,0.3c5.3,3.5,11.9,7.3,19.2,11.2
	c24.2,12.8,56.5,26.4,78.7,35.4C784.8,405.5,795.2,409.5,795.2,409.5z"/>
<path class="st4" d="M824.2,411.5l-7,51l-18-2c0,0-1.1-1-2.9-2.7c4,0.1,10.6-1.1,11.9-9.3c0,0-6.9-24.2,4-34.7
	C816.3,413.9,820.4,413.1,824.2,411.5z"/>
<path class="st1" d="M810.2,448.5c0,0-10-35,13-39l38,15l44,3c0,0,11.5,18.8-6.9,39.8c-10.2,11.5-24.6,18.4-40,19l-48.1,2.2l-15-31
	C795.2,457.5,808.2,460.5,810.2,448.5z"/>
<path class="st4" d="M566.1,310.8c-5,1.5-25.9,7.7-47.2,16.2l0,0c-10.6,4.1-20.8,8.8-30.8,14.2c-2.1,1.2-4,2.3-5.9,3.5
	c-5.6,3.6-10.1,7.2-12.9,10.8c-12.3,16-30.5,24.6-39.5,28.1c-0.6-3.8-0.1-7.6,1.5-11.1l40.1-28.2l-5.7-0.2l7.5-3.7l-4.5-0.3
	l54.5-24.5C523.2,315.5,541.2,314.3,566.1,310.8z"/>
<path class="st4" d="M501.9,187.3l-3.6,11.2l-33-34c0,0,1.5-3.4,3.6-8.1C473,165.3,492.9,180.7,501.9,187.3z"/>
<path class="st7" d="M382.8,203.9c-1.2-3.4-2-6.9-2.6-10.4l-43,15c0,0-29.5,22.5-26.5,71.5c0,0,36.5-13.5,52.5,2.5l0.3,2.8
	c3.4,28,15.8,54.1,35.2,74.4c8,8.3,15.5,17.8,19.4,26.8c0,0,28-8,45-30s98-45,98-45s-43,1-49-14s-26-47-19-72s11-33,11-33
	s-41-29-38-38l-26,30l-12,4c0.9,2.3,1.4,4.8,1.4,7.3C430.3,223,391.9,229.5,382.8,203.9z"/>
<path class="st3" d="M143.8,329.3c0,0,8.4,11-3.9,27.5s-22.4,30.5-18.3,40.8c0,0,18.5-30.7,33.5-31.2S160.4,347.8,143.8,329.3z"/>
<path class="st4" d="M143.8,329.3c0.7,1.1,1.3,2.2,1.7,3.4c14.7,17.2,22.5,33.3,8.4,33.7c-13.1,0.4-28.9,23.9-32.7,29.8
	c0.1,0.5,0.3,0.9,0.4,1.3c0,0,18.5-30.7,33.5-31.2S160.4,347.8,143.8,329.3z"/>
<path class="st8" d="M159.4,343.3c0,3.9-0.4,7-1,7s-1-3.1-1-7s0.5-2,1.1-2S159.4,339.4,159.4,343.3z"/>
<path class="st8" d="M164.7,347.9c-3.4,1.8-6.3,3-6.6,2.5s2.3-2.3,5.7-4.2s2.1-0.5,2.3,0S168.1,346,164.7,347.9z"/>
<path class="st3" d="M99.5,329.3c0,0-8.4,11,3.9,27.5s22.4,30.5,18.3,40.8c0,0-18.5-30.7-33.5-31.2S83,347.8,99.5,329.3z"/>
<path class="st4" d="M99.5,329.3c-0.7,1.1-1.3,2.2-1.7,3.4c-14.7,17.2-22.5,33.3-8.4,33.7c13.1,0.4,28.9,23.9,32.7,29.8
	c-0.1,0.5-0.3,0.9-0.4,1.3c0,0-18.5-30.7-33.5-31.2S83,347.8,99.5,329.3z"/>
<path class="st8" d="M84,343.3c0,3.9,0.4,7,1,7s1-3.1,1-7s-0.5-2-1.1-2S84,339.4,84,343.3z"/>
<path class="st8" d="M78.6,347.9c3.4,1.8,6.3,3,6.6,2.5s-2.3-2.3-5.7-4.2s-2.1-0.5-2.3,0S75.2,346,78.6,347.9z"/>
<path class="st9" d="M86.6,396.2c0,0,23.4-0.7,30.5-5.8s36-11,37.8-3s35.2,40.1,8.8,40.3s-61.5-4.1-68.5-8.4S86.6,396.2,86.6,396.2z
	"/>
<path class="st10" d="M164.1,425c-26.4,0.2-61.5-4.1-68.5-8.4c-5.4-3.3-7.5-15-8.2-20.4h-0.8c0,0,1.5,18.9,8.5,23.2
	s42.1,8.6,68.5,8.4c7.6-0.1,10.3-2.8,10.1-6.8C172.7,423.4,169.8,424.9,164.1,425z"/>
<path class="st3" d="M273.9,528.5c1.8-1.5,3.2-3.5,3.8-5.8c0.5-2.3-0.5-5-2.7-5.9c-2.5-0.9-5.1,0.8-7.1,2.5s-4.3,3.7-6.9,3.3
	c2.7-2.5,4-6.2,3.2-9.8c-0.1-0.7-0.4-1.4-0.9-2c-1.4-1.5-3.8-0.8-5.5,0.3c-5.2,3.7-6.6,10.7-6.7,17.1c-0.5-2.3-0.1-4.7-0.1-7
	s-0.7-5-2.6-6.2c-1.2-0.7-2.6-1-4-1c-2.3-0.1-4.9,0.2-6.5,1.9c-2,2.1-1.5,5.7,0.3,8s4.4,3.8,6.8,5.4c1.9,1.2,3.6,2.7,4.8,4.6
	c0.1,0.3,0.3,0.5,0.4,0.8h14.6C268.1,533,271.2,530.9,273.9,528.5z"/>
<path class="st3" d="M338.9,560.3c1.8-1.5,3.2-3.5,3.8-5.8c0.5-2.3-0.5-5-2.7-5.9c-2.5-0.9-5.1,0.8-7.1,2.5s-4.3,3.7-6.9,3.3
	c2.7-2.5,4-6.2,3.2-9.8c-0.1-0.7-0.4-1.4-0.9-2c-1.4-1.5-3.8-0.8-5.5,0.3c-5.2,3.7-6.6,10.7-6.7,17.1c-0.5-2.3-0.1-4.7-0.1-7
	s-0.7-5-2.6-6.2c-1.2-0.7-2.6-1-4-1c-2.3-0.1-4.9,0.2-6.5,1.9c-2,2.1-1.5,5.7,0.3,8c1.7,2.3,4.4,3.8,6.8,5.4
	c1.9,1.2,3.6,2.7,4.8,4.6c0.1,0.3,0.3,0.5,0.4,0.8h14.6C333.1,564.9,336.2,562.7,338.9,560.3z"/>
<path class="st3" d="M418.7,409c0,0,97-40,176-2l-19,40l-91,2L418.7,409z"/>
<path class="st4" d="M428.7,177.6c0.3-3.7,0.8-7.5,1.5-11.1l-56-5c0,0,3.9,3.4,5.6,15.9c6.6,3.9,14.2,9.1,22.4,9.1
	C411.8,186.5,421.1,183.4,428.7,177.6z"/>
<circle class="st5" cx="402.7" cy="141" r="44"/>
<path class="st11" d="M370.2,152.5h6v-17l6-18c0,0,30-14,44-11l11,10c0,0,3-24-15-33s-50-5-58,2s-21,19-11,52l3,8
	C356.2,145.5,368.2,141.5,370.2,152.5z"/>
<g class="st12">
	<path d="M447.9,175.6l3.3-1.1l15.1-17.4c-0.3-0.8-0.3-1.7-0.1-2.6L447.9,175.6z"/>
	<path d="M426.9,207.8c7.9-3.5,14-11.1,13.7-22c0-0.6,0-1.1-0.1-1.7l-0.3,0.4l-12,4c0.9,2.3,1.4,4.8,1.4,7.3
		C429.8,200,428.8,204.2,426.9,207.8z"/>
	<path d="M543.5,310.7c-25.1,8.7-59,22.5-69.3,35.8c-0.2,0.3-0.5,0.6-0.8,1c27.5-18.8,87.8-36,87.8-36
		C555.3,311.6,549.4,311.3,543.5,310.7z"/>
	<path d="M429.2,376.5c-4-9-11.5-18.5-19.4-26.8c-19.5-20.3-31.9-46.4-35.2-74.4l-0.3-2.8c-16-16-52.5-2.5-52.5-2.5
		c-1.9-31.1,9.3-51.5,17.7-62.3l-2.2,0.8c0,0-29.5,22.5-26.5,71.5c0,0,36.5-13.5,52.5,2.5l0.3,2.8c3.4,28,15.8,54.1,35.2,74.4
		c8,8.3,15.5,17.8,19.4,26.8c0,0,24.4-7,41.4-25.8C450.5,367.6,440.2,373,429.2,376.5z"/>
</g>
<path class="st5" d="M418.2,259.5c0,0-48,69-73,89s-32-9-32-9v-64l44-5l0.5,6.1l0.5,6.9l41-44c0,0,41-37,49-15
	S418.2,259.5,418.2,259.5z"/>
<path class="st4" d="M357.7,276.6c-6,3.5-12.4,6.3-19,8.4c-9.5,2.9-20.3-0.2-25.5-2v-7.5l44-5L357.7,276.6z"/>
<path class="st7" d="M312.7,269l-2.6,10.7c0,0,15.6,7.3,28.6,3.3s23-11,25-12s-8-12-8-12L312.7,269z"/>
<path class="st4" d="M600.7,391c6.7-5.1,14.1-9.2,22-12c7.5-2.6,14.6-6.3,21-11"/>
<path class="st13" d="M905.2,427.5l-1.6-0.1c2.4,6,5.8,20.8-8.3,36.9c-10.2,11.5-24.6,18.4-40,19l-46.6,2.2l1.5,3.1l48.1-2.3
	c15.4-0.6,29.8-7.5,40-19C916.7,446.3,905.2,427.5,905.2,427.5z"/>
<path class="st14" d="M678.5,479h-0.2c0.1,2.4,0.4,7.2,0.4,12.6C678.8,486.9,678.6,482.3,678.5,479z"/>
<path class="st14" d="M735.4,470.4c0.1,0.6,0.3,1.2,0.5,1.8C736.9,471.6,738.3,470.5,735.4,470.4z"/>
<path class="st13" d="M814.2,493.5c-10.2,4.7-87.3-8.9-97.8-10.8c-0.2,1-0.6,1.9-1.2,2.8c0,0,88,16,99,11c5.7-2.6,7.1-5.9,6.3-9
	C820,489.6,818.1,491.8,814.2,493.5z"/>
<path class="st14" d="M678.3,479c0-1-0.1-1.5-0.1-1.5S673.1,479.3,678.3,479z"/>
<path class="st4" d="M380.8,119h60.8c2.3,0,4.1,1.8,4.1,4.1v25.8c0,2.3-1.8,4.1-4.1,4.1h-60.8c-2.3,0-4.1-1.8-4.1-4.1v-25.8
	C376.7,120.8,378.5,119,380.8,119z"/>
<path class="st4" d="M353.2,130h24.1c1.3,0,2.4,1.1,2.4,2.4v8.1c0,1.3-1.1,2.4-2.4,2.4h-24.1c-1.3,0-2.4-1.1-2.4-2.4v-8.1
	C350.7,131.1,351.8,130,353.2,130z"/>
<path class="st15" d="M380.8,118h60.8c2.3,0,4.1,1.8,4.1,4.1v25.8c0,2.3-1.8,4.1-4.1,4.1h-60.8c-2.3,0-4.1-1.8-4.1-4.1v-25.8
	C376.7,119.8,378.5,118,380.8,118z"/>
<path class="st16" d="M388.8,120h52.7c2.3,0,4.1,1.8,4.1,4.1v21.8c0,2.3-1.8,4.1-4.1,4.1h-52.7c-2.3,0-4.1-1.8-4.1-4.1v-21.8
	C384.8,121.8,386.6,120,388.8,120z"/>
<path class="st16" d="M353.2,129h24.1c1.3,0,2.4,1.1,2.4,2.4v8.1c0,1.3-1.1,2.4-2.4,2.4h-24.1c-1.3,0-2.4-1.1-2.4-2.4v-8.1
	C350.7,130.1,351.8,129,353.2,129z"/>
<path class="st4" d="M430.7,120c10.8-6.5,19.6-16,25.4-27.2c0.7-1.3,1.3-2.8,0.9-4.2c-0.7-2.7-4.3-3.2-6.8-4.4
	c-4.8-2.2-6.8-7.7-9.9-11.9c-5.5-7.2-14.5-10.6-23.3-9c-4.6,0.9-8.8,3.2-13.4,3.9c-9.9,1.4-20.7-4.6-29.7,0c-4.1,2.1-6.8,6-9.2,9.9
	c-6.1,9.7-13.7,20-8.2,31.4c3.2,6.5,8.2,11.9,15.3,13.8s15.3,0.3,22.6-0.5c6-0.6,12.2-2,18.2-1.4C419.6,121.1,424,124,430.7,120z"/>
<path class="st11" d="M430.7,118c10.8-6.5,19.6-16,25.4-27.2c0.7-1.3,1.3-2.8,0.9-4.2c-0.7-2.7-4.3-3.2-6.8-4.4
	c-4.8-2.2-6.8-7.7-9.9-11.9c-5.5-7.2-14.5-10.6-23.3-9c-4.6,0.9-8.8,3.2-13.4,3.9c-9.9,1.4-20.7-4.6-29.7,0c-4.1,2.1-6.8,6-9.2,9.9
	c-6.1,9.7-13.7,20-8.2,31.4c3.2,6.5,8.2,11.9,15.3,13.8s15.3,0.3,22.6-0.5c6-0.6,12.2-2,18.2-1.4C419.6,119.1,424,122,430.7,118z"/>
<polygon class="st17" points="1038.7,233.2 603.7,311 603.7,77.8 1038.7,0 "/>
<polygon class="st17" points="948.6,26.9 1029,13 1030.2,49.1 947.6,62.9 "/>
<g class="st18">
	<path class="st19" d="M792.1,228.2c2.7-0.6,5.5-0.8,8.3-0.7c16.5,0.3,33.5,1.9,49.7-3c8.6-2.6,16.3-6.8,25.1-8.7
		c15-3.1,30,1.4,44.8-2.3c3-0.8,6.7-1.9,8.8-0.7c2.5,1.3,0.7,4.8,3.7,5.7c1,0.1,1.9,0.3,2.8,0.6c1.1,0.6,0.4,2-0.7,2.9
		c-6.7,5.4-20.3,1.8-28.7,6.2c-1.9,1-3.3,2.3-5,3.3c-2.8,1.4-5.7,2.5-8.7,3.2l-46.5,13c-11.1,3.1-22.4,6.3-34,7.6
		c-11.5,1.4-23.5,0.8-31.9-3.1c-1.8-0.8-3.5-1.9-4.2-3.3C772.4,242.4,780.5,231.3,792.1,228.2z"/>
	<polygon class="st20" points="751.1,136.1 790,166.8 828.9,197.6 765,209.7 701,221.8 726,178.9 	"/>
	<polygon class="st20" points="791.5,128.9 830.5,159.7 869.4,190.5 805.5,202.6 741.5,214.7 766.5,171.8 	"/>
	<polygon class="st3" points="851.8,64.9 776.6,208 919.1,180.3 971.8,170.4 	"/>
	<polygon class="st4" points="971.8,170.4 919.1,180.3 851.8,64.9 	"/>
	
		<linearGradient id="SVGID_1_" gradientUnits="userSpaceOnUse" x1="894.3691" y1="204.2371" x2="894.3691" y2="318.2527" gradientTransform="matrix(0.9826 -0.1857 -0.1857 -0.9826 10.5368 603.9037)">
		<stop  offset="0" style="stop-color:#808080;stop-opacity:0.25"/>
		<stop  offset="0.54" style="stop-color:#808080;stop-opacity:0.12"/>
		<stop  offset="1" style="stop-color:#808080;stop-opacity:0.1"/>
	</linearGradient>
	<path class="st21" d="M891.4,131.3c-0.5-1.9-2.4-3.2-4.3-3c0,0,1-7.9-15.2-4.7c-1-2-3.5-2.9-5.5-1.9c-0.3,0.2-0.6,0.4-0.9,0.6
		l-0.7-3.6c0,0-8.9,5.1,0.5,12.4l1.1,6c0,0.2,0.1,0.3,0.1,0.4c0.1,0.1,0.1,0.2,0.1,0.3c0.4,1.8,3.6,15.6-3.6,20.4
		c-7.7,5.1-12.1-10.7-12.1-10.7c-5-20.7-14.5-20.6-16.8-20.3c-0.3,0-0.5,0.1-0.8,0.1c-1.1,0.1-4.3,1.2-5.6,13.2
		c-1.5,14.3-7,10.8-7,10.8c-12.3-6.7-21-0.8-21-0.8c-21.4,12.6-3.2,36.1,0.5,40.6c-1.4,7.1-4.3,19.6-7,20.2
		c-3.9,0.7-11.1,14.4,8.5,35.5l5.2-1c0,0-16.2-21.1-3.4-31.6c-0.3,0.8-0.6,1.5-1,2.2c-7.1,12.2,17.1,26.9,17.1,26.9l5.8-1.1
		L812.1,225c-5.3-7,4.6-12.7,4.6-12.7c11.8-9.9,5.7-21.8,5.7-21.8l27.5-5.2c-3.4,7.5-8.4,26,8.2,50.3l3.9-0.7l-3.2-29.5
		c0,0,1-6.4,7.7-15.9c2.7,12,8.4,32.7,16.9,41.4l5.6-1.1c0,0-6.8-19.6-7-27c-0.1-3-0.2-6-0.5-8.9l-1.4-15.5c4.6-2.9,7-8.5,5.9-13.9
		l-5.2-26.9c-0.3-1.5,0.7-3,2.2-3.3c0.1,0,0.1,0,0.2,0l6.6-0.9c0.9-0.2,1.5-1,1.3-1.9C891.4,131.4,891.4,131.4,891.4,131.3z"/>
	<path class="st22" d="M864.4,180.6c0,0,6.2,37.1,18.4,49.3l5.5-1c0,0-6.7-19.3-6.9-26.5c-0.1-2.9-0.2-5.8-0.5-8.8l-2.3-25
		L864.4,180.6z"/>
	<path class="st2" d="M864.4,180.6c0,0,6.2,37.1,18.4,49.3l5.5-1c0,0-6.7-19.3-6.9-26.5c-0.1-2.9-0.2-5.8-0.5-8.8l-2.3-25
		L864.4,180.6z"/>
	<path class="st22" d="M801.9,185.9c0,0-4,23.8-7.8,24.5s-10.9,14.1,8.4,34.9l5.1-1c0,0-17.8-23.2-0.9-32.8
		C806.7,211.6,809.7,191.7,801.9,185.9z"/>
	<path class="st2" d="M801.9,185.9c0,0-4,23.8-7.8,24.5s-10.9,14.1,8.4,34.9l5.1-1c0,0-17.8-23.2-0.9-32.8
		C806.7,211.6,809.7,191.7,801.9,185.9z"/>
	<path class="st22" d="M865.9,137.8l-1.1-5.9c-9.2-7.1-0.5-12.1-0.5-12.1l1.2,6.3c21.9-6.3,20.7,3.2,20.7,3.2c1.9-0.2,3.7,1,4.3,2.9
		c0.3,0.8-0.1,1.8-1,2.1c-0.1,0-0.2,0.1-0.3,0.1l-6.5,0.9c-1.5,0.2-2.6,1.6-2.4,3.1c0,0.1,0,0.1,0,0.2l5.1,26.4
		c0.7,3.8-0.2,7.8-2.7,10.8c-1.9,2.3-4.9,4.4-9.7,5.1l-50.2,9.5c0,0,6,11.7-5.6,21.4c0,0-9.8,5.6-4.5,12.5l13.2,16.6l-5.7,1.1
		c0,0-23.8-14.4-16.8-26.4c3.9-7.7,3.3-17-1.6-24.1c0,0-24.4-26.9-1.2-40.6c0,0,8.6-5.8,20.7,0.8c0,0,5.4,3.5,6.9-10.6
		c1.2-11.7,4.5-12.9,5.5-13c0.3,0,0.5,0,0.8-0.1c2.2-0.3,11.6-0.4,16.5,20c0,0,4.3,15.5,11.8,10.6c7-4.6,4-18.3,3.5-20
		c0-0.1-0.1-0.2-0.1-0.3l0,0C865.9,138.1,865.9,138,865.9,137.8z"/>
	<path class="st22" d="M851.7,181.6c0,0-15.5,21.5,6.1,53l3.8-0.7l-3.1-29c0,0,1.8-12.2,18.5-28.1L851.7,181.6z"/>
	
		<ellipse transform="matrix(0.9826 -0.1857 0.1857 0.9826 -8.4121 163.2825)" class="st22" cx="867.6" cy="126.6" rx="4.1" ry="4.1"/>
	
		<linearGradient id="SVGID_2_" gradientUnits="userSpaceOnUse" x1="883.2335" y1="259.0804" x2="883.2335" y2="350.5419" gradientTransform="matrix(0.9826 -0.1857 -0.1857 -0.9826 10.5368 603.9037)">
		<stop  offset="0" style="stop-color:#808080;stop-opacity:0.25"/>
		<stop  offset="0.54" style="stop-color:#808080;stop-opacity:0.12"/>
		<stop  offset="1" style="stop-color:#808080;stop-opacity:0.1"/>
	</linearGradient>
	<path class="st23" d="M850.5,153.2c4.7-7.1,1.9-7.6,0.1-9.5c-1.2-1.3-11.7-1.8-18.2-2c-0.1-0.5-0.4-1.3-0.6-2.4
		c0,0-0.5-1.9-0.8-3.2l0,0h0.4l-0.1-0.4l8-0.4c6.8-0.3,7.2-3,7.2-3c0.2-4.7-7.5-0.2-7.5-0.2c-1.5,0.8-5.6,0.2-8.8-0.4
		c-0.1-0.7-0.1-1.3-0.2-2c0-1,0-2.1-0.2-3.1c-0.1-0.9-0.5-1.7-1-2.4c-2.3-2.8-5.1-5.3-8.1-7.4c-0.2-1.8,0-3.5,0.5-5.2
		c2.5-1.3,3.9-4,3.4-6.8c-0.1-0.6-0.3-1.2-0.6-1.8c1.4-1.9,0.8-5.1-1.2-6.9c-0.2-0.2-0.4-0.4-0.7-0.5c-1.3-0.9-2.8-1.2-4.4-1
		c-1.7,0.3-3.3,0.9-4.7,1.9c-1.7,1.1-3.3,2.5-5.3,2.8c-1.5,0.2-3-0.3-4.4,0.1c-1.8,0.6-2.7,2.5-3.3,4.3s-1.1,3.7-2.7,4.8
		c-1.4,0.9-3.1,0.9-4.8,1.3c-2.3,0.5-4.2,2.1-5,4.2c-0.7,2,0.1,4.1,1.8,5.3c0.3,0.2,0.6,0.4,0.9,0.5c0.3,0.1,0.7,0.2,1,0.4
		c0.2,0.1,0.3,0.3,0.3,0.5c0,0.3-0.1,0.5-0.2,0.8c-0.4,1.1-0.3,2.3,0.3,3.4c0.2,0.4,0.5,0.7,0.8,0.9c0.1,0.1,0.2,0.2,0.3,0.2
		c1.2,0.5,2.6-0.6,3.8-0.1h0.1c0.5,0.5,0.8,1,1.2,1.6c0.3,0.3,0.6,0.6,1,0.8c1,0.7,2.2,0.9,3.5,0.7c1.5-0.3,3-0.9,4.3-1.7
		c1.8-1,3.7-2.4,3.8-4.4c0.1-1.2-0.5-2.4-0.4-3.6c0.1-0.6,0.3-1.1,0.7-1.6c-0.2,1-0.3,2-0.2,3.1c0,0.8,0.1,1.7,0.3,2.5
		c0.4,2.1,1.2,4.2,2.3,6.1c1.5,2.4,2.6,5.1,3.3,7.9c0.2,1.2,0.3,2.5,0.1,3.7c-0.6,3.6-0.6,5.1-0.4,5.8c0.1,0.9,0.4,0.9,0.4,0.9h0.1
		c0.1,1.2,0.6,2.4,1.6,3.2c9,3.7,27.5-1.6,27.5-1.6c-3.7,1.3-6.4,11.5-6.4,11.5c-0.4,2.2-1.3,4.3-2.7,6.1l0,0
		c-2-0.3-4.4,1.9-6.1,3.2l-0.2,0.1c-0.7,0.5-0.8,1.4-0.4,2c0,0.1,0.1,0.1,0.1,0.2l7.1,7.8c4.1,2.9,6.4,3.1,7.1,2.3
		c0.4-0.5,0.1-1.5-0.9-2.4c-2.4-2.2-2.1-9.5-2-10.2C842.2,167.4,846.5,159.2,850.5,153.2z"/>
	<path class="st24" d="M821.8,110.7c0,0-2.1,4.7-0.7,8.8l-7.7-4.1c0,0,2.4-0.7,1.9-6.5L821.8,110.7z"/>
	<path class="st25" d="M827,142.1c0,0,20.3,0.3,22.1,2.1s4.4,2.3,0,9.3s-9.2,16.9-9.2,16.9l-5.2-2.4c1.9-2,3.1-4.5,3.6-7.2
		c0,0,2.5-9.9,6-11.2c0,0-17.4,5.1-26,1.4c0,0-2.3-1.7-1.2-5.5S827,142.1,827,142.1z"/>
	<path class="st4" d="M815.7,115.6c0,0-5.1-1.2-4.7,6.5c0.1,2.8,1,5.6,2.4,8c1.7,2.8,4,7.7,3.3,11.7c-1,6.1,0,6.1,0,6.1l2.6-1.6
		c3.5-2.1,7.5-3.3,11.6-3.3h1.2c0,0-2.4-8.8-2.5-12.6c0-1.8,0-3.5-1.1-5C825.1,121,818.1,115.6,815.7,115.6z"/>
	<path class="st26" d="M815.6,115.3c0,0-5.1-1.2-4.7,6.5c0.1,2.8,1,5.6,2.4,8c1.7,2.8,4,7.7,3.3,11.7c-1,6.1,0,6.1,0,6.1l2.6-1.6
		c3.5-2.1,7.5-3.3,11.6-3.3h1.2c0,0-2.4-8.8-2.5-12.6c0-1.8,0-3.5-1.1-5C825,120.6,818,115.3,815.6,115.3z"/>
	<path class="st4" d="M813.7,121.5c0.7-1.9,2.8-2.9,4.7-2.2c0.5,0.2,0.9,0.5,1.3,0.8c0.8,0.8,1.4,1.8,1.8,2.8
		c2.4,5.5,4.2,8.9,4.2,8.9c1.5,0.2,3.1,0.6,4.6,1.1c0.2,1.9,0.5,3.8,0.5,3.8l-6.5,0.3l-8.9-10.5
		C815.5,126.5,812.8,124.3,813.7,121.5z"/>
	<path class="st24" d="M813.6,121.1c0.7-1.9,2.8-2.9,4.7-2.2c0.5,0.2,0.9,0.5,1.3,0.8c0.8,0.8,1.4,1.8,1.8,2.8
		c2.4,5.5,4.2,8.9,4.2,8.9s9.8,2.7,12.3,1.4c0,0,7.3-4.3,7.1,0.2c0,0-0.3,2.6-6.8,2.9l-14.1,0.7l-8.9-10.5
		C815.5,126.1,812.7,123.8,813.6,121.1z"/>
	<path class="st4" d="M814.8,111.5c0.2-0.9,0.6-0.6,0.5-2.2l6.4,1.7c-0.3,0.7-0.5,1.3-0.7,2c-0.6,0.2-1.3,0.3-2,0.4
		C817.6,113.8,816,112.2,814.8,111.5z"/>
	<ellipse transform="matrix(0.9826 -0.1857 0.1857 0.9826 -5.696 153.784)" class="st24" cx="818.2" cy="107.3" rx="6.2" ry="6.2"/>
	<path class="st4" d="M820.8,105.8c-1.1,0.1-2.3-0.3-3.2,0.3s-1.2,2.2-1,3.4s0.7,2.5,0.4,3.7c-0.4,1.6-2,2.6-3.4,3.5s-3,2-3.2,3.6
		c-0.1,1.2,0.5,2.3,0.4,3.5c-0.1,1.9-1.9,3.3-3.6,4.2c-1.2,0.8-2.6,1.4-4,1.6c-1.5,0.3-3-0.3-3.9-1.4c-0.5-0.6-0.7-1.5-1.4-1.8
		c-1.1-0.5-2.5,0.6-3.6,0.1c-0.4-0.2-0.7-0.5-0.9-0.9c-0.5-1-0.6-2.2-0.3-3.3c0.1-0.2,0.2-0.5,0.2-0.8c-0.1-0.6-0.9-0.8-1.5-1.1
		c-2-1-3-3.3-2.3-5.5c0.8-2.1,2.6-3.6,4.8-4.1c1.5-0.4,3.2-0.4,4.5-1.2c1.5-1,2-2.9,2.5-4.6s1.4-3.6,3.1-4.1
		c1.3-0.4,2.8,0.1,4.1-0.1c1.9-0.2,3.5-1.6,5-2.7c1.3-1,2.9-1.6,4.5-1.9c1.6-0.3,3.3,0.2,4.6,1.3
		C825.2,100.1,825.4,105.6,820.8,105.8z"/>
	<path class="st27" d="M820.5,105.7c-1.1,0.1-2.3-0.3-3.2,0.3s-1.2,2.2-1,3.4s0.7,2.5,0.4,3.7c-0.4,1.6-2,2.6-3.4,3.5s-3,2-3.2,3.6
		c-0.1,1.2,0.5,2.3,0.4,3.5c-0.1,1.9-1.9,3.3-3.6,4.2c-1.2,0.8-2.6,1.4-4,1.6c-1.5,0.3-3-0.3-3.9-1.4c-0.5-0.6-0.7-1.5-1.4-1.8
		c-1.1-0.5-2.5,0.6-3.6,0.1c-0.4-0.2-0.7-0.5-0.9-0.9c-0.5-1-0.6-2.2-0.3-3.3c0.1-0.2,0.2-0.5,0.2-0.8c-0.1-0.6-0.9-0.8-1.5-1.1
		c-2-1-3-3.3-2.3-5.5c0.8-2.1,2.6-3.6,4.8-4.1c1.5-0.4,3.2-0.4,4.5-1.2c1.5-1,2-2.9,2.5-4.6s1.4-3.6,3.1-4.1
		c1.3-0.4,2.8,0.1,4.1-0.1c1.9-0.2,3.5-1.6,5-2.7c1.3-1,2.9-1.6,4.5-1.9c1.6-0.3,3.3,0.2,4.6,1.3C825,100,825.2,105.4,820.5,105.7z"
		/>
	<path class="st4" d="M822.4,121.3c0,0-8,0.5-7.3,6.1s-2.8-6.4-2.8-6.4l3.1-3.4l4.4,0.5L822.4,121.3z"/>
	<path class="st26" d="M822.1,121.2c0,0-8,0.5-7.3,6.1s-2.8-6.4-2.8-6.4l3.1-3.4l4.4,0.5L822.1,121.2z"/>
	<path class="st26" d="M829.5,172.1l6.7,7.6c3.9,2.8,6.1,3,6.7,2.2c0.4-0.5,0.1-1.5-0.8-2.4c-2.4-2.3-2-10-2-10
		c-2,0.1-3.7-1.1-4.5-2.9c-1.9-0.3-4.1,1.9-5.8,3.1l-0.1,0.1c-0.7,0.5-0.8,1.4-0.3,2C829.4,172,829.5,172.1,829.5,172.1z"/>
	<path class="st4" d="M840.2,169.6c0,0-3.8,0.5-4.5-2.9C836.5,168.5,838.2,169.6,840.2,169.6z"/>
	<path class="st4" d="M829.5,172.1l6.7,7.6c3.9,2.8,6.1,3,6.7,2.2c-1.9-0.6-7.4-3-13.1-12.1l-0.1,0.1c-0.7,0.5-0.8,1.4-0.3,2
		C829.5,172,829.5,172.1,829.5,172.1z"/>
	<path class="st3" d="M719.2,231.7c0,0-17.8,15.9,22.8,27.6c0,0,5.3-16.7-6.1-27.4c-4.6-4.3-11.6-4.5-16.5-0.5L719.2,231.7z"/>
	<path class="st28" d="M719.4,231.4c0,0,19.7,9.9,22.6,27.9"/>
	<path class="st29" d="M740.9,259.4c0,0-10.3-20.2-5.8-37.4c1.9-7.2,1.5-14.9-1.3-21.8c-1.3-3.3-3-6.4-4.9-9.4"/>
	<path class="st3" d="M731.6,180.1c0.5,2.6-2.8,11.1-2.8,11.1s-6.2-6.7-6.7-9.3c-0.5-2.6,1.2-5.2,3.8-5.6
		C728.6,175.7,731.1,177.5,731.6,180.1L731.6,180.1z"/>
	<path class="st3" d="M742.2,193.1c-1,2.5-8.4,7.8-8.4,7.8s-1.5-9-0.5-11.5c1-2.5,3.8-3.7,6.3-2.7
		C742.1,187.8,743.3,190.6,742.2,193.1L742.2,193.1z"/>
	<path class="st3" d="M746.6,218c-2.1,1.6-11.2,2.5-11.2,2.5s3.2-8.5,5.3-10.2c2.1-1.6,5.2-1.2,6.8,0.9
		C749.1,213.4,748.7,216.4,746.6,218L746.6,218z"/>
	<path class="st3" d="M745.6,237.6c-1.8,2-10.6,4.4-10.6,4.4s1.7-9,3.5-10.9c1.8-2,4.9-2.1,6.8-0.3S747.5,235.7,745.6,237.6
		L745.6,237.6z"/>
	<path class="st3" d="M724,203.3c2.2,1.5,11.3,1.7,11.3,1.7s-3.8-8.3-6-9.8c-2.2-1.5-5.2-0.9-6.7,1.4S721.7,201.9,724,203.3
		L724,203.3L724,203.3z"/>
	<path class="st3" d="M723.1,226.3c2.6,0.7,11.3-1.8,11.3-1.8s-6.1-6.8-8.7-7.5c-2.6-0.7-5.2,0.7-6,3.3
		C719.1,222.8,720.6,225.5,723.1,226.3L723.1,226.3L723.1,226.3z"/>
	<path class="st3" d="M725.4,248.6c2.4,1.2,11.5,0.2,11.5,0.2s-4.9-7.7-7.3-8.9c-2.4-1.2-5.3-0.2-6.5,2.2
		C721.9,244.6,723,247.5,725.4,248.6L725.4,248.6z"/>
	<path class="st30" d="M731.6,180.1c0.5,2.6-2.8,11.1-2.8,11.1s-6.2-6.7-6.7-9.3c-0.5-2.6,1.2-5.2,3.8-5.6
		C728.6,175.7,731.1,177.5,731.6,180.1L731.6,180.1z"/>
	<path class="st30" d="M742.2,193.1c-1,2.5-8.4,7.8-8.4,7.8s-1.5-9-0.5-11.5c1-2.5,3.8-3.7,6.3-2.7
		C742.1,187.8,743.3,190.6,742.2,193.1L742.2,193.1z"/>
	<path class="st30" d="M746.6,218c-2.1,1.6-11.2,2.5-11.2,2.5s3.2-8.5,5.3-10.2c2.1-1.6,5.2-1.2,6.8,0.9
		C749.1,213.4,748.7,216.4,746.6,218L746.6,218z"/>
	<path class="st30" d="M745.6,237.6c-1.8,2-10.6,4.4-10.6,4.4s1.7-9,3.5-10.9c1.8-2,4.9-2.1,6.8-0.3S747.5,235.7,745.6,237.6
		L745.6,237.6z"/>
	<path class="st30" d="M724,203.3c2.2,1.5,11.3,1.7,11.3,1.7s-3.8-8.3-6-9.8c-2.2-1.5-5.2-0.9-6.7,1.4S721.7,201.9,724,203.3
		L724,203.3L724,203.3z"/>
	<path class="st30" d="M723.1,226.3c2.6,0.7,11.3-1.8,11.3-1.8s-6.1-6.8-8.7-7.5c-2.6-0.7-5.2,0.7-6,3.3
		C719.1,222.8,720.6,225.5,723.1,226.3L723.1,226.3L723.1,226.3z"/>
	<path class="st30" d="M725.4,248.6c2.4,1.2,11.5,0.2,11.5,0.2s-4.9-7.7-7.3-8.9c-2.4-1.2-5.3-0.2-6.5,2.2
		C721.9,244.6,723,247.5,725.4,248.6L725.4,248.6z"/>
	<path class="st29" d="M760.4,263.3c0,0-10.3-20.2-5.8-37.4c1.9-7.2,1.5-14.8-1.3-21.7c-1.3-3.3-3-6.4-4.9-9.4"/>
	<path class="st3" d="M751.2,183.9c0.5,2.6-2.8,11.1-2.8,11.1s-6.2-6.7-6.7-9.3c-0.5-2.6,1.2-5.2,3.8-5.6
		C748.1,179.6,750.7,181.3,751.2,183.9L751.2,183.9z"/>
	<path class="st3" d="M761.8,196.9c-1,2.5-8.4,7.8-8.4,7.8s-1.5-9-0.5-11.5c1-2.5,3.8-3.7,6.3-2.7
		C761.6,191.6,762.8,194.5,761.8,196.9L761.8,196.9z"/>
	<path class="st3" d="M766.1,221.8c-2.1,1.6-11.2,2.5-11.2,2.5s3.2-8.5,5.3-10.2c2.1-1.6,5.2-1.2,6.8,0.9
		C768.6,217.2,768.2,220.2,766.1,221.8L766.1,221.8L766.1,221.8z"/>
	<path class="st3" d="M765.2,241.4c-1.8,2-10.6,4.4-10.6,4.4s1.7-9,3.5-10.9c1.8-2,4.9-2.1,6.8-0.3S767,239.5,765.2,241.4
		L765.2,241.4L765.2,241.4z"/>
	<path class="st3" d="M743.5,207.2c2.2,1.5,11.3,1.7,11.3,1.7s-3.8-8.3-6-9.8c-2.2-1.5-5.2-0.9-6.7,1.4S741.3,205.7,743.5,207.2
		L743.5,207.2z"/>
	<path class="st3" d="M742.7,230.1c2.6,0.7,11.3-1.8,11.3-1.8s-6.1-6.8-8.7-7.5c-2.6-0.7-5.2,0.7-6,3.3
		C738.6,226.6,740.1,229.3,742.7,230.1L742.7,230.1L742.7,230.1z"/>
	<path class="st3" d="M744.9,252.4c2.4,1.2,11.5,0.2,11.5,0.2s-4.9-7.7-7.3-8.9c-2.4-1.2-5.3-0.2-6.5,2.2
		C741.5,248.4,742.5,251.3,744.9,252.4L744.9,252.4L744.9,252.4z"/>
	<path class="st19" d="M801.7,78.5l-1.8,0.3c0.7-0.1,1.1-0.8,1-1.5c-0.1-0.7-0.8-1.1-1.5-1l0,0L785.2,79c-0.7,0.1-1.1,0.8-1,1.5
		c0.1,0.7,0.8,1.1,1.5,1l0,0l1.8-0.3c-0.7,0.1-1.1,0.8-1,1.5c0.1,0.7,0.8,1.1,1.5,1l-2.5,0.5c-0.7,0.1-1.1,0.8-1,1.5
		c0.1,0.7,0.8,1.1,1.5,1l0,0l14.2-2.7c0.7-0.1,1.1-0.8,1-1.5c-0.1-0.7-0.8-1.1-1.5-1l2.5-0.5c0.7-0.1,1.1-0.8,1-1.5
		C803,78.8,802.4,78.3,801.7,78.5z"/>
	<path class="st19" d="M775.9,102.9l-1.8,0.3c0.7-0.1,1.1-0.8,1-1.5c-0.1-0.7-0.8-1.1-1.5-1l-14.3,2.7c-0.7,0.1-1.1,0.8-1,1.5
		c0.1,0.7,0.8,1.1,1.5,1l1.8-0.3c-0.7,0.1-1.1,0.8-1,1.5c0.1,0.7,0.8,1.1,1.5,1l0,0l-2.5,0.5c-0.7,0.1-1.1,0.8-1,1.5
		c0.1,0.7,0.8,1.1,1.5,1l14.3-2.7c0.7-0.1,1.1-0.8,1-1.5c-0.1-0.7-0.8-1.1-1.5-1l0,0l2.5-0.5c0.7-0.1,1.1-0.8,1-1.5
		C777.2,103.2,776.6,102.8,775.9,102.9L775.9,102.9L775.9,102.9z"/>
	<path class="st19" d="M921.6,71.7l-1.8,0.3c0.7-0.1,1.1-0.8,1-1.5c-0.1-0.7-0.8-1.1-1.5-1l0,0l-14.2,2.7c-0.7,0.1-1.1,0.8-1,1.5
		c0.1,0.7,0.8,1.1,1.5,1l1.8-0.3c-0.7,0.1-1.1,0.8-1,1.5c0.1,0.7,0.8,1.1,1.5,1l0,0l-2.5,0.4c-0.7,0.1-1.1,0.8-1,1.5
		c0.1,0.7,0.8,1.1,1.5,1l14.2-2.7c0.7-0.1,1.1-0.8,1-1.5c-0.1-0.7-0.8-1.1-1.5-1l2.5-0.5c0.7-0.1,1.1-0.8,1-1.5
		C922.9,72,922.3,71.5,921.6,71.7L921.6,71.7z"/>
	
		<ellipse transform="matrix(0.9826 -0.1857 0.1857 0.9826 -6.3735 137.5655)" class="st20" cx="731.3" cy="102.8" rx="13.3" ry="13.3"/>
	<path class="st2" d="M810.5,171.4c0,0,6.7,5.9,9.8,11.1s2.1,7,2.1,7"/>
</g>
</svg>
